<?xml version="1.0" encoding="utf-8"?>
<!-- Generator: Adobe Illustrator 16.0.0, SVG Export Plug-In . SVG Version: 6.00 Build 0)  -->
<!DOCTYPE svg PUBLIC "-//W3C//DTD SVG 1.1//EN" "http://www.w3.org/Graphics/SVG/1.1/DTD/svg11.dtd">
<svg version="1.1" id="Layer_1" xmlns="http://www.w3.org/2000/svg" xmlns:xlink="http://www.w3.org/1999/xlink" x="0px" y="0px"
	 width="500px" height="500px" viewBox="0 0 500 500" enable-background="new 0 0 500 500" xml:space="preserve">
<text transform="matrix(1 0 0 1 283.835 275.9023)"><tspan x="0" y="0" fill="#231F20" font-family="'MyriadPro-Regular'" font-size="48">+  f</tspan><tspan x="62.975" y="0" fill="#231F20" font-family="'MyriadPro-Regular'" font-size="48">r</tspan><tspan x="78.814" y="0" fill="#231F20" font-family="'MyriadPro-Regular'" font-size="48">iends</tspan></text>
<g>
	<defs>
		<rect id="SVGID_1_" x="43.635" y="218.303" width="482.109" height="70.6"/>
	</defs>
	<clipPath id="SVGID_2_">
		<use xlink:href="#SVGID_1_"  overflow="visible"/>
	</clipPath>
	<path clip-path="url(#SVGID_2_)" fill="#00ADEE" d="M69.842,256.68c-1.216,0-2.245-0.843-2.622-1.967
		c-0.559-1.592-2.338-2.714-3.93-2.714c-6.553,0-14.041,8.05-14.041,14.978c0,3.181,1.405,4.679,3.745,4.679
		c5.991,0,13.667-5.616,16.1-13.01c0.373-1.124,1.404-1.966,2.62-1.966c1.686,0,2.809,1.403,2.809,2.808
		c0,6.739,1.966,12.168,6.552,12.168c1.497,0,2.807,1.312,2.807,2.808c0,1.498-1.31,2.809-2.807,2.809
		c-6.272,0-9.548-4.585-10.953-9.173c-4.304,5.336-10.762,9.173-17.128,9.173c-6.083,0-9.359-5.055-9.359-10.295
		c0-9.923,9.359-20.594,19.655-20.594c4.025,0,7.862,2.622,9.175,6.646c0.091,0.28,0.186,0.561,0.186,0.842
		C72.651,255.275,71.527,256.68,69.842,256.68"/>
	<path clip-path="url(#SVGID_2_)" fill="#00ADEE" d="M109.15,223.919c-3.371,0-8.424,7.208-8.424,22.465
		c0,3.743,0.656,7.207,1.685,10.39c6.271-8.426,10.484-18.533,10.484-25.367C112.895,226.82,111.022,223.919,109.15,223.919
		 M118.512,277.271c-6.742,0-13.012-4.212-17.317-10.483c-5.898,5.897-12.918,10.483-20.126,10.483c-1.498,0-2.808-1.31-2.808-2.808
		c0-1.497,1.31-2.809,2.808-2.809c5.15,0,11.515-3.838,17.224-9.922c-2.061-4.493-3.184-9.733-3.184-15.35
		c0-14.696,4.307-28.081,14.041-28.081c7.488,0,9.362,8.33,9.362,13.104c0,9.549-5.711,21.622-13.387,31.077
		c3.652,5.896,8.799,9.172,13.387,9.172c1.497,0,2.807,1.312,2.807,2.809C121.319,275.962,120.009,277.271,118.512,277.271"/>
	<path clip-path="url(#SVGID_2_)" fill="#00ADEE" d="M213.984,277.271c-6.273,0-8.424-6.178-8.424-11.231
		c0-8.144-1.219-8.426-1.874-8.426c-1.592,0-3.93,2.621-7.955,8.612c-3.463,5.242-6.74,11.045-12.638,11.045
		c-6.832,0-7.486-7.207-7.486-14.04c0-8.143-1.22-8.424-1.874-8.424c-1.592,0-3.93,2.621-7.955,8.611
		c-3.462,5.241-6.739,11.045-12.637,11.045c-6.832,0-7.487-7.207-7.487-14.04c0-7.771-1.22-8.424-2.809-8.424
		c-1.685,0-3.464,1.402-6.834,8.235c-4.492,8.894-7.956,17.036-17.503,17.036c-1.497,0-2.807-1.31-2.807-2.808
		c0-1.497,1.31-2.809,2.807-2.809c5.431,0,7.582-4.024,12.449-13.853c3.184-6.272,6.084-11.419,11.888-11.419
		c7.021,0,8.424,6.833,8.424,14.04c0,8.143,1.217,8.424,1.872,8.424c1.592,0,3.931-2.621,7.956-8.612
		c3.464-5.24,6.74-11.045,12.636-11.045c6.834,0,7.489,7.208,7.489,14.041c0,8.144,1.217,8.424,1.871,8.424
		c1.592,0,3.932-2.621,7.957-8.611c3.464-5.241,6.74-11.044,12.636-11.044c6.834,0,7.489,7.207,7.489,14.04
		c0,4.306,1.59,5.615,2.809,5.615c1.497,0,2.807,1.312,2.807,2.809C216.791,275.962,215.481,277.271,213.984,277.271"/>
	<path clip-path="url(#SVGID_2_)" fill="#00ADEE" d="M253.287,256.68c-1.219,0-2.246-0.843-2.622-1.967
		c-0.562-1.592-2.342-2.714-3.932-2.714c-6.553,0-14.038,8.05-14.038,14.978c0,3.181,1.402,4.679,3.743,4.679
		c5.336,0,11.231-3.557,16.566-10.202c0.564-0.655,1.311-1.03,2.154-1.03c1.589,0,2.807,1.498,2.807,2.809
		c0,4.306,0.844,7.488,2.34,9.642c0.283,0.467,0.469,1.029,0.469,1.59c0,1.404-1.213,2.809-2.809,2.809
		c-3.088,0-4.396-5.055-4.961-7.581c-4.867,4.587-10.575,7.581-16.566,7.581c-4.307,0-7.21-2.526-8.519-5.896
		c-3.648,3.463-8.704,5.896-13.946,5.896c-1.497,0-2.807-1.311-2.807-2.809c0-1.496,1.31-2.808,2.807-2.808
		c5.804,0,12.075-5.241,13.854-9.641c2.433-8.236,10.294-15.632,18.906-15.632c4.024,0,7.863,2.622,9.172,6.646
		c0.095,0.28,0.188,0.561,0.188,0.842C256.094,255.275,254.969,256.68,253.287,256.68"/>
</g>
</svg>
