<?xml version="1.0" encoding="utf-8"?>
<!-- Generator: Adobe Illustrator 16.0.0, SVG Export Plug-In . SVG Version: 6.00 Build 0)  -->
<!DOCTYPE svg PUBLIC "-//W3C//DTD SVG 1.1//EN" "http://www.w3.org/Graphics/SVG/1.1/DTD/svg11.dtd">
<svg version="1.1" id="Layer_1" xmlns="http://www.w3.org/2000/svg" xmlns:xlink="http://www.w3.org/1999/xlink" x="0px" y="0px"
	 width="482.109px" height="79.8px" viewBox="0 0 482.109 79.8" enable-background="new 0 0 482.109 79.8" xml:space="preserve">
<g display="none">
	<path display="inline" fill="#231F20" d="M282.615,36.062v11.281h10.849v2.88h-10.849V61.6h-3.072V50.223h-10.85v-2.88h10.85
		V36.062H282.615z"/>
	<path display="inline" fill="#231F20" d="M319.669,61.6V41.582h-3.265v-3.217h3.265v-1.104c0-3.265,0.72-6.241,2.688-8.113
		c1.584-1.536,3.695-2.16,5.664-2.16c1.487,0,2.783,0.337,3.601,0.674l-0.576,3.264c-0.624-0.288-1.488-0.528-2.688-0.528
		c-3.602,0-4.514,3.169-4.514,6.722v1.248h5.617v3.217h-5.617V61.6H319.669z"/>
	<path display="inline" fill="#231F20" d="M333.252,45.615c0-2.736-0.048-5.09-0.191-7.249h3.696l0.145,4.561h0.191
		c1.057-3.12,3.602-5.088,6.434-5.088c0.479,0,0.814,0.048,1.199,0.144v3.984c-0.433-0.096-0.863-0.144-1.439-0.144
		c-2.978,0-5.089,2.256-5.664,5.424c-0.097,0.576-0.192,1.248-0.192,1.969V61.6h-4.177L333.252,45.615L333.252,45.615z"/>
	<path display="inline" fill="#231F20" d="M353.797,31.837c0.048,1.439-1.009,2.593-2.688,2.593c-1.488,0-2.544-1.152-2.544-2.593
		c0-1.488,1.104-2.64,2.64-2.64C352.788,29.198,353.797,30.349,353.797,31.837z M349.092,61.6V38.365h4.226V61.6H349.092z"/>
	<path display="inline" fill="#231F20" d="M362.676,50.751c0.097,5.712,3.744,8.063,7.969,8.063c3.024,0,4.85-0.527,6.434-1.199
		l0.72,3.023c-1.488,0.672-4.032,1.44-7.729,1.44c-7.152,0-11.426-4.705-11.426-11.714s4.129-12.528,10.896-12.528
		c7.585,0,9.602,6.672,9.602,10.944c0,0.863-0.097,1.535-0.145,1.969L362.676,50.751L362.676,50.751z M375.061,47.727
		c0.05-2.688-1.104-6.865-5.855-6.865c-4.272,0-6.146,3.938-6.48,6.865H375.061z"/>
	<path display="inline" fill="#231F20" d="M384.371,44.654c0-2.399-0.048-4.367-0.191-6.288h3.744l0.24,3.841h0.096
		c1.152-2.208,3.841-4.368,7.682-4.368c3.217,0,8.209,1.92,8.209,9.889V61.6h-4.226V48.206c0-3.744-1.393-6.864-5.376-6.864
		c-2.785,0-4.945,1.968-5.665,4.32c-0.191,0.527-0.288,1.248-0.288,1.969V61.6h-4.225V44.654L384.371,44.654z"/>
	<path display="inline" fill="#231F20" d="M431.077,27.517v28.082c0,2.064,0.048,4.417,0.19,6.001h-3.792l-0.191-4.032h-0.096
		c-1.297,2.593-4.129,4.562-7.922,4.562c-5.615,0-9.937-4.753-9.937-11.811c-0.048-7.729,4.752-12.479,10.417-12.479
		c3.552,0,5.952,1.68,7.009,3.552h0.096V27.517H431.077z M426.853,47.823c0-0.528-0.048-1.248-0.191-1.776
		c-0.624-2.688-2.928-4.896-6.097-4.896c-4.368,0-6.96,3.842-6.96,8.979c0,4.704,2.304,8.593,6.863,8.593
		c2.832,0,5.425-1.872,6.192-5.041c0.145-0.576,0.191-1.152,0.191-1.824L426.853,47.823L426.853,47.823z"/>
	<path display="inline" fill="#231F20" d="M437.507,57.279c1.248,0.816,3.456,1.681,5.568,1.681c3.071,0,4.512-1.536,4.512-3.456
		c0-2.017-1.2-3.12-4.32-4.272c-4.176-1.487-6.145-3.792-6.145-6.575c0-3.744,3.023-6.816,8.017-6.816
		c2.354,0,4.417,0.672,5.713,1.438l-1.056,3.072c-0.912-0.576-2.593-1.344-4.753-1.344c-2.496,0-3.889,1.439-3.889,3.168
		c0,1.921,1.393,2.784,4.417,3.937c4.031,1.536,6.097,3.554,6.097,7.01c0,4.08-3.169,6.961-8.689,6.961
		c-2.544,0-4.896-0.624-6.527-1.585L437.507,57.279z"/>
</g>
<g>
	<path fill="#00ADEE" d="M52.78,42.377c-1.216,0-2.245-0.843-2.622-1.967c-0.559-1.593-2.338-2.715-3.93-2.715
		c-6.553,0-14.041,8.051-14.041,14.979c0,3.181,1.405,4.679,3.745,4.679c5.991,0,13.667-5.616,16.1-13.01
		c0.373-1.124,1.404-1.966,2.62-1.966c1.686,0,2.809,1.403,2.809,2.808c0,6.739,1.966,12.168,6.552,12.168
		c1.497,0,2.807,1.312,2.807,2.809c0,1.498-1.31,2.809-2.807,2.809c-6.272,0-9.548-4.585-10.953-9.173
		c-4.304,5.336-10.762,9.173-17.128,9.173c-6.083,0-9.359-5.055-9.359-10.295c0-9.923,9.359-20.594,19.655-20.594
		c4.025,0,7.862,2.622,9.175,6.646c0.091,0.28,0.186,0.562,0.186,0.842C55.589,40.973,54.465,42.377,52.78,42.377"/>
	<path fill="#00ADEE" d="M92.088,9.616c-3.371,0-8.424,7.208-8.424,22.465c0,3.743,0.656,7.207,1.685,10.39
		c6.271-8.426,10.484-18.533,10.484-25.367C95.833,12.518,93.96,9.616,92.088,9.616 M101.45,62.969
		c-6.742,0-13.012-4.212-17.317-10.483c-5.898,5.897-12.918,10.483-20.126,10.483c-1.498,0-2.808-1.31-2.808-2.808
		c0-1.497,1.31-2.81,2.808-2.81c5.15,0,11.515-3.838,17.224-9.922c-2.061-4.493-3.184-9.732-3.184-15.35
		C78.047,17.385,82.354,4,92.088,4c7.488,0,9.362,8.33,9.362,13.104c0,9.549-5.711,21.622-13.387,31.077
		c3.652,5.896,8.799,9.172,13.387,9.172c1.497,0,2.807,1.312,2.807,2.81S102.947,62.969,101.45,62.969"/>
	<path fill="#00ADEE" d="M196.922,62.969c-6.273,0-8.424-6.178-8.424-11.231c0-8.144-1.219-8.426-1.874-8.426
		c-1.592,0-3.93,2.621-7.955,8.612c-3.463,5.242-6.74,11.045-12.638,11.045c-6.832,0-7.486-7.207-7.486-14.04
		c0-8.143-1.22-8.424-1.874-8.424c-1.592,0-3.93,2.621-7.955,8.611c-3.462,5.24-6.739,11.045-12.637,11.045
		c-6.832,0-7.487-7.207-7.487-14.04c0-7.771-1.22-8.424-2.809-8.424c-1.685,0-3.464,1.401-6.834,8.234
		c-4.492,8.895-7.956,17.036-17.503,17.036c-1.497,0-2.807-1.31-2.807-2.808c0-1.497,1.31-2.81,2.807-2.81
		c5.431,0,7.582-4.023,12.449-13.853c3.184-6.272,6.084-11.419,11.888-11.419c7.021,0,8.424,6.833,8.424,14.04
		c0,8.143,1.217,8.424,1.872,8.424c1.592,0,3.931-2.621,7.956-8.612c3.464-5.24,6.74-11.045,12.636-11.045
		c6.834,0,7.489,7.208,7.489,14.041c0,8.144,1.217,8.424,1.871,8.424c1.592,0,3.932-2.621,7.957-8.61
		c3.464-5.241,6.74-11.045,12.636-11.045c6.834,0,7.489,7.207,7.489,14.04c0,4.307,1.59,5.615,2.809,5.615
		c1.497,0,2.807,1.312,2.807,2.81C199.729,61.659,198.419,62.969,196.922,62.969"/>
	<path fill="#00ADEE" d="M236.226,42.377c-1.219,0-2.246-0.843-2.622-1.967c-0.562-1.593-2.342-2.715-3.932-2.715
		c-6.553,0-14.039,8.051-14.039,14.979c0,3.181,1.402,4.679,3.744,4.679c5.336,0,11.23-3.557,16.565-10.202
		c0.564-0.654,1.311-1.029,2.154-1.029c1.589,0,2.807,1.498,2.807,2.809c0,4.306,0.844,7.488,2.34,9.643
		c0.282,0.467,0.469,1.028,0.469,1.59c0,1.403-1.213,2.809-2.809,2.809c-3.088,0-4.396-5.055-4.961-7.581
		c-4.866,4.587-10.575,7.581-16.565,7.581c-4.308,0-7.211-2.526-8.52-5.896c-3.648,3.463-8.704,5.896-13.946,5.896
		c-1.497,0-2.807-1.311-2.807-2.809c0-1.496,1.31-2.809,2.807-2.809c5.804,0,12.075-5.241,13.854-9.641
		c2.434-8.236,10.294-15.632,18.906-15.632c4.023,0,7.862,2.622,9.172,6.646c0.095,0.28,0.188,0.562,0.188,0.842
		C239.032,40.973,237.907,42.377,236.226,42.377"/>
</g>
<g>
	<path d="M275.185,57.141h-6.003v-6.712h-6.325V44.62h6.325v-6.712h6.003v6.712h6.323v5.809h-6.323V57.141z"/>
	<path d="M303.42,62.274h-6.453V45.559h-2.581V40.2h2.581V24.195c0-2.754,0.655-4.818,1.969-6.196
		c1.312-1.376,3.129-2.065,5.452-2.065c1.55,0,2.808,0.227,3.776,0.678c0.969,0.453,1.797,1.064,2.484,1.84l-3.614,4.065
		c-0.474-0.602-1.141-0.904-2-0.904c-0.43,0-0.807,0.172-1.13,0.517c-0.323,0.345-0.484,1.011-0.484,2.001V40.2h5.292v5.358h-5.292
		V62.274L303.42,62.274z"/>
	<path d="M312.52,40.2h6.454v3.42c0.731-1.504,1.679-2.548,2.84-3.127c1.162-0.581,2.324-0.874,3.485-0.874
		c0.774,0,1.441,0.097,2.001,0.293c0.56,0.192,1.055,0.417,1.483,0.676l-2.064,5.553c-0.86-0.474-1.786-0.71-2.774-0.71
		c-1.549,0-2.765,0.493-3.648,1.481c-0.881,0.992-1.322,2.648-1.322,4.97v10.392h-6.454V40.2L312.52,40.2z"/>
	<path d="M335.367,34.134c-1.075,0-2.022-0.388-2.84-1.16c-0.817-0.776-1.227-1.743-1.227-2.905c0-1.163,0.409-2.129,1.227-2.905
		c0.817-0.774,1.765-1.162,2.84-1.162c1.118,0,2.076,0.387,2.872,1.162c0.796,0.775,1.194,1.742,1.194,2.905
		c0,1.162-0.398,2.129-1.194,2.905C337.443,33.746,336.485,34.134,335.367,34.134z M332.14,40.2h6.454v22.073h-6.454V40.2z"/>
	<path d="M351.599,56.37c0.926,0.709,2.206,1.064,3.842,1.064c1.418,0,2.581-0.227,3.484-0.68c0.902-0.452,1.655-0.936,2.259-1.45
		l3.871,3.871c-0.99,1.077-2.236,1.956-3.741,2.646c-1.507,0.688-3.42,1.033-5.745,1.033c-1.936,0-3.68-0.29-5.228-0.871
		c-1.55-0.582-2.872-1.387-3.97-2.42c-1.098-1.034-1.937-2.258-2.518-3.68c-0.58-1.42-0.872-2.971-0.872-4.646
		c0-1.677,0.313-3.228,0.938-4.647c0.623-1.419,1.463-2.646,2.517-3.68c1.055-1.031,2.312-1.838,3.775-2.417
		c1.463-0.581,3.034-0.874,4.712-0.874c1.936,0,3.657,0.354,5.161,1.063c1.507,0.71,2.757,1.692,3.744,2.938
		c0.99,1.25,1.723,2.71,2.196,4.39c0.473,1.68,0.643,3.484,0.515,5.423h-16.844C350.04,54.68,350.674,55.66,351.599,56.37z
		 M359.763,48.912c-0.214-1.116-0.73-2.042-1.548-2.771c-0.818-0.733-1.916-1.098-3.292-1.098c-1.334,0-2.441,0.33-3.324,1
		c-0.881,0.666-1.494,1.624-1.84,2.869H359.763L359.763,48.912z"/>
	<path d="M370.734,40.2h6.455v2.841c0.73-1.206,1.677-2.075,2.839-2.615c1.162-0.537,2.518-0.807,4.066-0.807
		c2.453,0,4.453,0.807,6.004,2.422c1.547,1.612,2.321,3.904,2.321,6.871v13.361h-6.454V49.365c0-1.246-0.321-2.217-0.969-2.903
		c-0.644-0.688-1.637-1.03-2.969-1.03c-1.547,0-2.741,0.416-3.582,1.257c-0.838,0.839-1.257,2.075-1.257,3.711v11.875h-6.455V40.2z"
		/>
	<path d="M406.685,62.855c-1.42,0-2.767-0.29-4.035-0.871c-1.27-0.582-2.378-1.387-3.325-2.42c-0.945-1.034-1.686-2.258-2.226-3.68
		c-0.538-1.42-0.808-2.971-0.808-4.646c0-1.677,0.27-3.226,0.808-4.647c0.54-1.419,1.28-2.646,2.226-3.68
		c0.947-1.031,2.056-1.838,3.325-2.417c1.269-0.581,2.615-0.874,4.035-0.874c1.677,0,3.086,0.27,4.228,0.807
		c1.14,0.54,2.011,1.302,2.613,2.292V16.451h6.454v45.823h-6.454v-2.518c-0.603,0.99-1.474,1.754-2.613,2.291
		C409.771,62.585,408.361,62.855,406.685,62.855z M408.361,57.174c1.636,0,2.926-0.536,3.872-1.611
		c0.947-1.075,1.42-2.518,1.42-4.325c0-1.806-0.473-3.248-1.42-4.325c-0.946-1.075-2.236-1.612-3.872-1.612
		s-2.946,0.537-3.938,1.612c-0.989,1.077-1.482,2.52-1.482,4.325c0,1.808,0.493,3.25,1.482,4.325
		C405.415,56.638,406.726,57.174,408.361,57.174z"/>
	<path d="M433.273,62.855c-1.852,0-3.636-0.364-5.358-1.098c-1.718-0.733-3.246-1.829-4.58-3.291l4.066-3.613
		c1.547,1.85,3.463,2.774,5.744,2.774c1.162,0,1.99-0.152,2.483-0.453c0.494-0.301,0.741-0.687,0.741-1.159
		c0-0.52-0.257-0.926-0.771-1.229c-0.52-0.299-1.68-0.644-3.487-1.031c-2.325-0.474-4.119-1.268-5.39-2.39
		c-1.268-1.116-1.902-2.71-1.902-4.775c0-2.064,0.729-3.741,2.195-5.031c1.46-1.292,3.44-1.939,5.936-1.939
		c1.764,0,3.28,0.26,4.551,0.776c1.271,0.515,2.464,1.27,3.582,2.258l-3.423,3.937c-0.558-0.558-1.224-1-2-1.323
		c-0.771-0.322-1.612-0.484-2.515-0.484c-0.861,0-1.497,0.152-1.903,0.453c-0.411,0.301-0.615,0.668-0.615,1.095
		c0,0.561,0.292,0.982,0.872,1.26c0.581,0.281,1.796,0.593,3.647,0.938c2.494,0.472,4.346,1.311,5.549,2.517
		s1.808,2.711,1.808,4.519c0,2.237-0.774,4.012-2.322,5.323C438.631,62.197,436.328,62.855,433.273,62.855z"/>
</g>
<g display="none">
	<path display="inline" d="M335.222,40.94h6.294v2.453c1.301-2.013,3.314-3.021,6.043-3.021c2.852,0,4.886,1.216,6.104,3.651
		c1.762-2.436,4.365-3.651,7.805-3.651c2.518,0,4.479,0.809,5.883,2.424c1.404,1.617,2.111,3.787,2.111,6.515v13.152h-6.296V49.94
		c0-1.216-0.239-2.172-0.723-2.864c-0.483-0.693-1.396-1.039-2.738-1.039c-2.812,0-4.216,1.615-4.216,4.847v11.579h-6.293V49.94
		c0-1.216-0.244-2.172-0.723-2.864c-0.483-0.693-1.395-1.039-2.738-1.039c-2.811,0-4.217,1.615-4.217,4.847v11.579h-6.296V40.94
		L335.222,40.94z"/>
	<path display="inline" d="M385.913,46.51c-0.733-0.566-1.667-0.851-2.8-0.851c-1.131,0-2.117,0.208-2.957,0.627
		c-0.838,0.422-1.573,0.988-2.203,1.701l-3.838-3.526c2.393-2.724,5.518-4.09,9.377-4.09c3.062,0,5.475,0.789,7.238,2.359
		c1.76,1.574,2.641,3.957,2.641,7.145v12.587h-6.293v-1.953c-1.428,1.682-3.44,2.519-6.043,2.519c-1.092,0-2.117-0.135-3.084-0.405
		c-0.965-0.275-1.813-0.706-2.549-1.29c-0.733-0.589-1.31-1.334-1.729-2.235c-0.421-0.903-0.63-1.979-0.63-3.24
		c0-1.049,0.222-1.971,0.662-2.77s1.039-1.457,1.792-1.984c0.754-0.521,1.648-0.911,2.676-1.163
		c1.029-0.251,2.129-0.375,3.304-0.375h5.603C387.036,48.094,386.649,47.075,385.913,46.51z M381.791,53.84
		c-0.838,0-1.469,0.191-1.889,0.567c-0.419,0.374-0.629,0.881-0.629,1.509c0,0.588,0.22,1.085,0.661,1.48
		c0.442,0.398,1.187,0.596,2.235,0.596c1.426,0,2.6-0.323,3.523-0.971c0.925-0.651,1.387-1.419,1.387-2.295v-0.885h-5.289V53.84z"/>
	<path display="inline" d="M398.344,40.94h6.293v2.453c0.586-0.963,1.438-1.711,2.548-2.232c1.113-0.526,2.487-0.789,4.123-0.789
		c1.383,0,2.696,0.282,3.932,0.851c1.239,0.567,2.32,1.354,3.241,2.36c0.924,1.01,1.646,2.202,2.171,3.588
		c0.525,1.383,0.788,2.893,0.788,4.53c0,1.637-0.263,3.146-0.788,4.529c-0.525,1.384-1.247,2.581-2.171,3.587
		c-0.923,1.008-2.002,1.796-3.241,2.366c-1.235,0.563-2.549,0.845-3.932,0.845c-1.636,0-3.01-0.262-4.123-0.784
		c-1.11-0.524-1.96-1.273-2.548-2.234v15.797h-6.293V40.94z M409.672,57.491c1.595,0,2.874-0.525,3.838-1.575
		c0.967-1.045,1.448-2.451,1.448-4.215c0-1.762-0.481-3.166-1.448-4.212c-0.964-1.052-2.243-1.575-3.838-1.575
		c-1.593,0-2.853,0.523-3.778,1.575c-0.921,1.046-1.384,2.45-1.384,4.212c0,1.764,0.461,3.17,1.384,4.215
		C406.819,56.966,408.075,57.491,409.672,57.491z"/>
	<path display="inline" d="M432.957,63.028c-1.805,0-3.544-0.356-5.226-1.067c-1.677-0.711-3.168-1.784-4.467-3.209l3.966-3.526
		c1.509,1.804,3.376,2.709,5.599,2.709c1.134,0,1.941-0.149,2.423-0.444c0.483-0.293,0.726-0.671,0.726-1.132
		c0-0.502-0.251-0.902-0.756-1.197c-0.503-0.293-1.637-0.628-3.399-1.004c-2.266-0.463-4.016-1.241-5.255-2.332
		c-1.237-1.09-1.857-2.642-1.857-4.655c0-2.018,0.716-3.651,2.14-4.909c1.427-1.262,3.357-1.889,5.792-1.889
		c1.717,0,3.197,0.254,4.434,0.754c1.238,0.504,2.403,1.239,3.492,2.204l-3.332,3.841c-0.545-0.546-1.198-0.974-1.95-1.288
		c-0.757-0.313-1.573-0.473-2.456-0.473c-0.837,0-1.458,0.145-1.857,0.441c-0.396,0.294-0.596,0.649-0.596,1.072
		c0,0.54,0.284,0.951,0.851,1.223c0.565,0.276,1.751,0.578,3.557,0.914c2.432,0.46,4.236,1.281,5.411,2.455
		c1.175,1.173,1.764,2.643,1.764,4.401c0,2.182-0.756,3.913-2.265,5.193C438.182,62.393,435.937,63.028,432.957,63.028z"/>
	<path display="inline" d="M464.675,62.462h-6.292V46.161h-2.517V40.94h2.517V25.33c0-2.683,0.641-4.697,1.919-6.04
		c1.28-1.344,3.052-2.016,5.317-2.016c1.512,0,2.738,0.222,3.682,0.663c0.945,0.439,1.753,1.039,2.423,1.793l-3.525,3.963
		c-0.459-0.586-1.109-0.879-1.949-0.879c-0.42,0-0.786,0.167-1.101,0.504c-0.317,0.334-0.474,0.986-0.474,1.951v15.67h5.162v5.222
		h-5.162V62.462L464.675,62.462z"/>
	<path display="inline" d="M483.807,63.028c-1.635,0-3.177-0.281-4.623-0.845c-1.45-0.57-2.698-1.358-3.747-2.366
		c-1.049-1.006-1.879-2.2-2.487-3.584c-0.608-1.386-0.912-2.896-0.912-4.532c0-1.638,0.304-3.147,0.912-4.53
		c0.608-1.382,1.436-2.578,2.487-3.588c1.049-1.006,2.297-1.791,3.747-2.36c1.446-0.568,2.988-0.851,4.623-0.851
		c1.638,0,3.179,0.282,4.624,0.851c1.449,0.567,2.698,1.354,3.746,2.36c1.049,1.01,1.877,2.202,2.487,3.588
		c0.608,1.383,0.913,2.893,0.913,4.53c0,1.637-0.305,3.146-0.913,4.532c-0.608,1.381-1.438,2.578-2.487,3.584
		c-1.048,1.008-2.297,1.796-3.746,2.366C486.985,62.746,485.444,63.028,483.807,63.028z M483.807,57.677
		c1.638,0,2.926-0.552,3.87-1.667c0.942-1.111,1.416-2.545,1.416-4.31c0-1.764-0.474-3.199-1.416-4.309
		c-0.944-1.115-2.232-1.673-3.87-1.673c-1.635,0-2.924,0.558-3.869,1.673c-0.945,1.109-1.416,2.545-1.416,4.309
		c0,1.765,0.471,3.198,1.416,4.31C480.883,57.125,482.172,57.677,483.807,57.677z"/>
	<path display="inline" d="M499.729,40.94h6.293v3.339c0.711-1.47,1.635-2.487,2.769-3.054c1.134-0.569,2.266-0.853,3.398-0.853
		c0.755,0,1.405,0.097,1.95,0.283c0.547,0.192,1.029,0.413,1.448,0.664l-2.008,5.412c-0.843-0.461-1.745-0.693-2.711-0.693
		c-1.509,0-2.696,0.48-3.556,1.451c-0.857,0.96-1.287,2.577-1.287,4.844v10.129h-6.294V40.94H499.729z"/>
	<path display="inline" d="M540.764,63.028c-1.638,0-3.158-0.281-4.565-0.845c-1.405-0.57-2.612-1.358-3.619-2.366
		c-1.004-1.006-1.803-2.2-2.389-3.584c-0.589-1.386-0.882-2.896-0.882-4.532c0-1.638,0.291-3.147,0.882-4.53
		c0.586-1.382,1.385-2.578,2.389-3.588c1.007-1.006,2.205-1.791,3.588-2.36c1.386-0.568,2.87-0.851,4.468-0.851
		c2.182,0,3.985,0.349,5.411,1.039c1.428,0.694,2.62,1.605,3.587,2.735l-4.151,3.84c-0.546-0.586-1.217-1.091-2.015-1.511
		c-0.799-0.421-1.677-0.627-2.643-0.627c-1.593,0-2.83,0.564-3.714,1.698c-0.883,1.134-1.321,2.517-1.321,4.154
		c0,1.637,0.45,3.021,1.352,4.155c0.904,1.13,2.171,1.7,3.811,1.7c1.214,0,2.212-0.243,2.986-0.727
		c0.779-0.48,1.418-0.995,1.921-1.538l4.154,3.776c-1.049,1.214-2.285,2.184-3.714,2.893
		C544.876,62.671,543.03,63.028,540.764,63.028z"/>
	<path display="inline" d="M553.913,17.781h6.296v25.931c0.712-1.133,1.635-1.972,2.771-2.52c1.128-0.544,2.452-0.819,3.959-0.819
		c2.393,0,4.346,0.79,5.855,2.362c1.511,1.573,2.266,3.806,2.266,6.702v13.025h-6.293V49.875c0-1.217-0.312-2.16-0.943-2.832
		c-0.631-0.673-1.596-1.007-2.895-1.007c-1.511,0-2.678,0.407-3.493,1.227c-0.818,0.818-1.227,2.023-1.227,3.616v11.579h-6.294
		V17.781H553.913z"/>
	<path display="inline" d="M591.522,46.51c-0.741-0.566-1.673-0.851-2.806-0.851c-1.131,0-2.117,0.208-2.954,0.627
		c-0.842,0.422-1.574,0.988-2.203,1.701l-3.835-3.526c2.387-2.724,5.515-4.09,9.372-4.09c3.062,0,5.475,0.789,7.239,2.359
		c1.761,1.574,2.643,3.957,2.643,7.145v12.587h-6.291v-1.953c-1.43,1.682-3.443,2.519-6.047,2.519c-1.09,0-2.115-0.135-3.081-0.405
		c-0.965-0.275-1.814-0.706-2.547-1.29c-0.735-0.589-1.314-1.334-1.731-2.235c-0.422-0.903-0.63-1.979-0.63-3.24
		c0-1.049,0.219-1.971,0.661-2.77s1.039-1.457,1.795-1.984c0.753-0.521,1.645-0.911,2.673-1.163
		c1.029-0.251,2.133-0.375,3.305-0.375h5.603C592.641,48.094,592.251,47.075,591.522,46.51z M587.396,53.84
		c-0.842,0-1.468,0.191-1.89,0.567c-0.418,0.374-0.626,0.881-0.626,1.509c0,0.588,0.22,1.085,0.657,1.48
		c0.44,0.398,1.188,0.596,2.233,0.596c1.429,0,2.604-0.323,3.528-0.971c0.923-0.651,1.383-1.419,1.383-2.295v-0.885h-5.286V53.84z"
		/>
	<path display="inline" d="M603.822,40.94h6.293v2.771c0.711-1.177,1.637-2.029,2.768-2.549c1.133-0.526,2.455-0.79,3.968-0.79
		c2.389,0,4.34,0.79,5.853,2.362c1.511,1.573,2.266,3.806,2.266,6.702v13.025h-6.295V49.875c0-1.217-0.311-2.16-0.945-2.832
		c-0.625-0.673-1.594-1.007-2.893-1.007c-1.509,0-2.675,0.407-3.492,1.227c-0.817,0.818-1.226,2.026-1.226,3.616v11.579h-6.296
		V40.94L603.822,40.94z"/>
	<path display="inline" d="M649.952,40.94v4.779h-3.085c0.254,0.461,0.462,0.969,0.63,1.515c0.168,0.541,0.252,1.11,0.252,1.697
		c0,1.261-0.231,2.412-0.695,3.463c-0.458,1.047-1.101,1.951-1.914,2.705c-0.823,0.757-1.795,1.344-2.931,1.763
		c-1.133,0.42-2.349,0.628-3.649,0.628c-1.513,0-2.918-0.273-4.219-0.817c-0.374,0.376-0.564,0.837-0.564,1.385
		c0,0.291,0.062,0.557,0.19,0.788c0.124,0.23,0.374,0.417,0.754,0.564c0.379,0.147,0.949,0.283,1.7,0.407
		c0.758,0.126,1.766,0.213,3.023,0.254c2.012,0.125,3.722,0.386,5.129,0.787c1.407,0.399,2.536,0.943,3.397,1.633
		c0.861,0.697,1.48,1.516,1.855,2.457c0.376,0.942,0.566,2.003,0.566,3.179c0,2.432-0.913,4.438-2.736,6.008
		c-1.824,1.575-4.73,2.362-8.718,2.362c-3.857,0-6.797-0.704-8.809-2.11c-2.014-1.402-3.021-3.239-3.021-5.506
		c0-1.51,0.376-2.702,1.131-3.587c0.758-0.883,1.786-1.552,3.087-2.014c-0.925-0.419-1.616-1.029-2.076-1.826
		c-0.462-0.797-0.695-1.678-0.695-2.643c0-2.012,0.984-3.483,2.955-4.405c-0.667-0.712-1.196-1.528-1.57-2.455
		c-0.378-0.923-0.567-1.928-0.567-3.021c0-1.26,0.233-2.411,0.692-3.459s1.103-1.952,1.924-2.706
		c0.813-0.754,1.779-1.34,2.892-1.763c1.112-0.418,2.336-0.629,3.68-0.629c1.347,0,2.52,0.188,3.528,0.567H649.952L649.952,40.94z
		 M638.937,71.147c1.89,0,3.232-0.261,4.032-0.789c0.795-0.521,1.195-1.205,1.195-2.042c0-0.838-0.424-1.49-1.262-1.954
		c-0.837-0.459-2.496-0.689-4.97-0.689c-1.594,0-2.82,0.191-3.682,0.564c-0.86,0.378-1.292,1.07-1.292,2.079
		c0,0.88,0.505,1.572,1.516,2.075C635.479,70.896,636.967,71.147,638.937,71.147z M638.56,52.518c1.133,0,2.036-0.323,2.71-0.973
		c0.669-0.65,1.005-1.522,1.005-2.616c0-1.088-0.336-1.96-1.005-2.611c-0.674-0.648-1.577-0.976-2.71-0.976
		c-1.13,0-2.035,0.327-2.704,0.976c-0.673,0.65-1.004,1.523-1.004,2.611c0,1.094,0.334,1.966,1.004,2.616
		C636.524,52.195,637.428,52.518,638.56,52.518z"/>
	<path display="inline" d="M660.431,56.705c0.902,0.691,2.146,1.039,3.744,1.039c1.383,0,2.518-0.223,3.396-0.661
		c0.882-0.444,1.615-0.914,2.201-1.416l3.777,3.776c-0.961,1.047-2.182,1.909-3.646,2.579c-1.467,0.669-3.337,1.009-5.603,1.009
		c-1.887,0-3.589-0.282-5.099-0.849c-1.51-0.564-2.798-1.356-3.873-2.363c-1.064-1.008-1.882-2.203-2.452-3.586
		c-0.563-1.384-0.849-2.895-0.849-4.532c0-1.635,0.303-3.146,0.913-4.529c0.611-1.382,1.428-2.579,2.455-3.589
		c1.03-1.005,2.252-1.791,3.684-2.358c1.425-0.568,2.956-0.853,4.591-0.853c1.89,0,3.565,0.35,5.035,1.04
		c1.469,0.694,2.686,1.644,3.65,2.866c0.965,1.212,1.68,2.642,2.141,4.277c0.458,1.636,0.626,3.397,0.503,5.284h-16.427
		C658.911,55.059,659.527,56.01,660.431,56.705z M668.392,49.437c-0.208-1.093-0.711-1.993-1.512-2.705
		c-0.797-0.713-1.864-1.07-3.209-1.07c-1.296,0-2.382,0.326-3.24,0.974c-0.861,0.653-1.456,1.585-1.794,2.802H668.392
		L668.392,49.437z"/>
</g>
</svg>
