<?xml version="1.0" encoding="utf-8"?>
<!-- Generator: Adobe Illustrator 16.0.0, SVG Export Plug-In . SVG Version: 6.00 Build 0)  -->
<!DOCTYPE svg PUBLIC "-//W3C//DTD SVG 1.1//EN" "http://www.w3.org/Graphics/SVG/1.1/DTD/svg11.dtd">
<svg version="1.1" id="Layer_1" xmlns="http://www.w3.org/2000/svg" xmlns:xlink="http://www.w3.org/1999/xlink" x="0px" y="0px"
	 width="350px" height="66px" viewBox="-117.231 8.963 350 66" enable-background="new -117.231 8.963 350 66" xml:space="preserve"
	>
<g>
	<path d="M-112.767,35.699h6.293v2.453c1.301-2.013,3.315-3.021,6.044-3.021c2.851,0,4.885,1.216,6.104,3.651
		c1.762-2.436,4.364-3.651,7.804-3.651c2.517,0,4.479,0.809,5.883,2.424c1.405,1.617,2.111,3.787,2.111,6.515v13.152h-6.295V44.699
		c0-1.216-0.24-2.172-0.723-2.864c-0.483-0.693-1.396-1.039-2.738-1.039c-2.812,0-4.216,1.615-4.216,4.847v11.579h-6.292V44.699
		c0-1.216-0.244-2.172-0.724-2.864c-0.483-0.693-1.395-1.039-2.738-1.039c-2.811,0-4.217,1.615-4.217,4.847v11.579h-6.295V35.699
		L-112.767,35.699z"/>
	<path d="M-62.075,41.27c-0.734-0.566-1.667-0.851-2.8-0.851c-1.131,0-2.117,0.208-2.958,0.627
		c-0.838,0.422-1.573,0.988-2.203,1.701l-3.838-3.526c2.394-2.724,5.519-4.09,9.378-4.09c3.062,0,5.474,0.789,7.237,2.359
		c1.761,1.574,2.642,3.957,2.642,7.145v12.587h-6.293v-1.953c-1.428,1.682-3.44,2.519-6.043,2.519c-1.091,0-2.117-0.135-3.083-0.405
		c-0.965-0.275-1.814-0.706-2.549-1.29c-0.734-0.589-1.31-1.334-1.729-2.235c-0.421-0.903-0.63-1.979-0.63-3.24
		c0-1.049,0.222-1.971,0.662-2.77c0.441-0.799,1.039-1.457,1.792-1.984c0.754-0.521,1.647-0.911,2.675-1.163
		c1.029-0.251,2.129-0.375,3.304-0.375h5.603C-60.952,42.854-61.339,41.835-62.075,41.27z M-66.197,48.6
		c-0.837,0-1.468,0.191-1.889,0.567c-0.419,0.374-0.628,0.881-0.628,1.509c0,0.588,0.219,1.085,0.661,1.48
		c0.442,0.398,1.187,0.596,2.235,0.596c1.426,0,2.6-0.323,3.524-0.971c0.924-0.651,1.386-1.419,1.386-2.295v-0.885h-5.289V48.6z"/>
	<path d="M-49.645,35.699h6.292v2.453c0.586-0.963,1.438-1.711,2.548-2.232c1.113-0.526,2.487-0.789,4.123-0.789
		c1.383,0,2.696,0.282,3.932,0.851c1.239,0.567,2.32,1.354,3.241,2.36c0.924,1.01,1.646,2.202,2.171,3.588
		c0.525,1.383,0.788,2.893,0.788,4.53c0,1.637-0.263,3.146-0.788,4.529c-0.525,1.384-1.247,2.581-2.171,3.587
		c-0.923,1.008-2.002,1.796-3.241,2.366c-1.235,0.563-2.549,0.845-3.932,0.845c-1.636,0-3.01-0.262-4.123-0.784
		c-1.11-0.524-1.959-1.273-2.548-2.234v15.797h-6.292V35.699z M-38.316,52.251c1.595,0,2.874-0.525,3.838-1.575
		c0.967-1.045,1.448-2.451,1.448-4.215c0-1.762-0.481-3.166-1.448-4.212c-0.964-1.052-2.243-1.575-3.838-1.575
		c-1.593,0-2.853,0.523-3.778,1.575c-0.92,1.046-1.384,2.45-1.384,4.212c0,1.764,0.461,3.17,1.384,4.215
		C-41.169,51.726-39.913,52.251-38.316,52.251z"/>
	<path d="M-15.031,57.787c-1.805,0-3.544-0.356-5.226-1.067c-1.677-0.711-3.168-1.784-4.467-3.209l3.966-3.526
		c1.509,1.804,3.376,2.709,5.599,2.709c1.134,0,1.941-0.149,2.423-0.444c0.483-0.293,0.726-0.671,0.726-1.132
		c0-0.502-0.251-0.902-0.756-1.197c-0.503-0.293-1.637-0.628-3.399-1.004c-2.266-0.463-4.016-1.241-5.255-2.332
		c-1.237-1.09-1.857-2.642-1.857-4.655c0-2.018,0.716-3.651,2.14-4.909c1.427-1.262,3.357-1.889,5.792-1.889
		c1.717,0,3.197,0.254,4.434,0.754c1.238,0.504,2.403,1.239,3.492,2.204l-3.332,3.841c-0.545-0.546-1.198-0.974-1.95-1.288
		c-0.757-0.313-1.573-0.473-2.456-0.473c-0.837,0-1.458,0.145-1.857,0.441c-0.396,0.294-0.596,0.649-0.596,1.072
		c0,0.54,0.284,0.951,0.851,1.223c0.565,0.276,1.751,0.578,3.557,0.914c2.432,0.46,4.236,1.281,5.411,2.455
		c1.175,1.173,1.764,2.643,1.764,4.401c0,2.182-0.756,3.913-2.265,5.193C-9.807,57.152-12.052,57.787-15.031,57.787z"/>
	<path d="M16.687,57.222h-6.292V40.921H7.878v-5.222h2.517V20.09c0-2.683,0.641-4.697,1.919-6.04
		c1.28-1.344,3.052-2.016,5.317-2.016c1.512,0,2.738,0.222,3.682,0.663c0.945,0.439,1.753,1.039,2.423,1.793l-3.525,3.963
		c-0.459-0.586-1.109-0.879-1.949-0.879c-0.42,0-0.786,0.167-1.101,0.504c-0.317,0.334-0.474,0.986-0.474,1.951v15.67h5.162v5.222
		h-5.162V57.222L16.687,57.222z"/>
	<path d="M35.818,57.787c-1.635,0-3.177-0.281-4.623-0.845c-1.45-0.57-2.698-1.358-3.747-2.366c-1.049-1.006-1.879-2.2-2.487-3.584
		c-0.608-1.386-0.912-2.896-0.912-4.532c0-1.638,0.304-3.147,0.912-4.53c0.608-1.382,1.436-2.578,2.487-3.588
		c1.049-1.006,2.297-1.791,3.747-2.36c1.446-0.568,2.988-0.851,4.623-0.851c1.638,0,3.179,0.282,4.624,0.851
		c1.449,0.567,2.698,1.354,3.746,2.36c1.049,1.01,1.877,2.202,2.487,3.588c0.608,1.383,0.913,2.893,0.913,4.53
		c0,1.637-0.305,3.146-0.913,4.532c-0.608,1.381-1.438,2.578-2.487,3.584c-1.048,1.008-2.297,1.796-3.746,2.366
		C38.997,57.506,37.456,57.787,35.818,57.787z M35.818,52.437c1.638,0,2.926-0.552,3.87-1.667c0.942-1.111,1.416-2.545,1.416-4.31
		c0-1.764-0.474-3.199-1.416-4.309c-0.944-1.115-2.232-1.673-3.87-1.673c-1.635,0-2.924,0.558-3.869,1.673
		c-0.945,1.109-1.416,2.545-1.416,4.309c0,1.765,0.471,3.198,1.416,4.31C32.895,51.885,34.184,52.437,35.818,52.437z"/>
	<path d="M51.741,35.699h6.293v3.339c0.711-1.47,1.635-2.487,2.769-3.054c1.134-0.569,2.266-0.853,3.398-0.853
		c0.755,0,1.405,0.097,1.95,0.283c0.547,0.192,1.029,0.413,1.448,0.664l-2.008,5.412c-0.843-0.461-1.745-0.693-2.711-0.693
		c-1.509,0-2.696,0.48-3.556,1.451c-0.857,0.96-1.287,2.577-1.287,4.844v10.129h-6.294V35.699H51.741z"/>
	<path d="M92.775,57.787c-1.638,0-3.158-0.281-4.565-0.845c-1.405-0.57-2.612-1.358-3.619-2.366c-1.004-1.006-1.803-2.2-2.389-3.584
		c-0.589-1.386-0.882-2.896-0.882-4.532c0-1.638,0.291-3.147,0.882-4.53c0.586-1.382,1.385-2.578,2.389-3.588
		c1.007-1.006,2.205-1.791,3.588-2.36c1.386-0.568,2.87-0.851,4.468-0.851c2.182,0,3.985,0.349,5.411,1.039
		c1.428,0.694,2.62,1.605,3.587,2.735l-4.151,3.84c-0.546-0.586-1.217-1.091-2.015-1.511c-0.799-0.421-1.677-0.627-2.643-0.627
		c-1.593,0-2.83,0.564-3.714,1.698c-0.883,1.134-1.321,2.517-1.321,4.154c0,1.637,0.45,3.021,1.352,4.155
		c0.904,1.13,2.171,1.7,3.811,1.7c1.214,0,2.212-0.243,2.986-0.727c0.779-0.48,1.418-0.995,1.921-1.538l4.154,3.776
		c-1.049,1.214-2.285,2.184-3.714,2.893C96.888,57.431,95.042,57.787,92.775,57.787z"/>
	<path d="M105.925,12.54h6.296v25.931c0.712-1.133,1.635-1.972,2.771-2.52c1.128-0.544,2.452-0.819,3.959-0.819
		c2.393,0,4.346,0.79,5.855,2.362c1.511,1.573,2.266,3.806,2.266,6.702v13.025h-6.293V44.635c0-1.217-0.312-2.16-0.943-2.832
		c-0.631-0.673-1.596-1.007-2.895-1.007c-1.511,0-2.678,0.407-3.493,1.227c-0.818,0.818-1.227,2.023-1.227,3.616v11.579h-6.294
		V12.54H105.925z"/>
	<path d="M143.534,41.27c-0.741-0.566-1.673-0.851-2.806-0.851c-1.131,0-2.117,0.208-2.954,0.627
		c-0.842,0.422-1.574,0.988-2.203,1.701l-3.835-3.526c2.387-2.724,5.515-4.09,9.372-4.09c3.062,0,5.475,0.789,7.239,2.359
		c1.761,1.574,2.643,3.957,2.643,7.145v12.587h-6.291v-1.953c-1.43,1.682-3.443,2.519-6.047,2.519c-1.09,0-2.115-0.135-3.081-0.405
		c-0.965-0.275-1.814-0.706-2.547-1.29c-0.735-0.589-1.314-1.334-1.731-2.235c-0.422-0.903-0.63-1.979-0.63-3.24
		c0-1.049,0.219-1.971,0.661-2.77s1.039-1.457,1.795-1.984c0.753-0.521,1.645-0.911,2.673-1.163
		c1.029-0.251,2.133-0.375,3.305-0.375h5.603C144.652,42.854,144.263,41.835,143.534,41.27z M139.408,48.6
		c-0.842,0-1.468,0.191-1.89,0.567c-0.418,0.374-0.626,0.881-0.626,1.509c0,0.588,0.22,1.085,0.657,1.48
		c0.44,0.398,1.188,0.596,2.233,0.596c1.429,0,2.604-0.323,3.528-0.971c0.923-0.651,1.383-1.419,1.383-2.295v-0.885h-5.286V48.6z"/>
	<path d="M155.834,35.699h6.293v2.771c0.711-1.177,1.637-2.029,2.768-2.549c1.133-0.526,2.455-0.79,3.968-0.79
		c2.389,0,4.34,0.79,5.853,2.362c1.511,1.573,2.266,3.806,2.266,6.702v13.025h-6.295V44.635c0-1.217-0.311-2.16-0.945-2.832
		c-0.625-0.673-1.594-1.007-2.893-1.007c-1.509,0-2.675,0.407-3.492,1.227c-0.817,0.818-1.226,2.026-1.226,3.616v11.579h-6.296
		V35.699L155.834,35.699z"/>
	<path d="M201.964,35.699v4.779h-3.085c0.254,0.461,0.462,0.969,0.63,1.515c0.168,0.541,0.252,1.11,0.252,1.697
		c0,1.261-0.231,2.412-0.695,3.463c-0.458,1.047-1.101,1.951-1.914,2.705c-0.823,0.757-1.795,1.344-2.931,1.763
		c-1.133,0.42-2.349,0.628-3.649,0.628c-1.513,0-2.918-0.273-4.219-0.817c-0.374,0.376-0.564,0.837-0.564,1.385
		c0,0.291,0.062,0.557,0.19,0.788c0.124,0.23,0.374,0.417,0.754,0.564c0.379,0.147,0.949,0.283,1.7,0.407
		c0.758,0.126,1.766,0.213,3.023,0.254c2.012,0.125,3.722,0.386,5.129,0.787c1.407,0.399,2.536,0.943,3.397,1.633
		c0.861,0.697,1.48,1.516,1.855,2.457c0.376,0.942,0.566,2.003,0.566,3.179c0,2.432-0.913,4.438-2.736,6.008
		c-1.824,1.575-4.73,2.362-8.718,2.362c-3.857,0-6.797-0.704-8.809-2.11c-2.014-1.402-3.021-3.239-3.021-5.506
		c0-1.51,0.376-2.702,1.131-3.587c0.758-0.883,1.786-1.552,3.087-2.014c-0.925-0.419-1.616-1.029-2.076-1.826
		c-0.462-0.797-0.695-1.678-0.695-2.643c0-2.012,0.984-3.483,2.955-4.405c-0.667-0.712-1.196-1.528-1.57-2.455
		c-0.378-0.923-0.567-1.928-0.567-3.021c0-1.26,0.233-2.411,0.692-3.459s1.103-1.952,1.924-2.706
		c0.813-0.754,1.779-1.34,2.892-1.763c1.112-0.418,2.336-0.629,3.68-0.629c1.347,0,2.52,0.188,3.528,0.567H201.964L201.964,35.699z
		 M190.948,65.906c1.89,0,3.232-0.261,4.032-0.789c0.795-0.521,1.195-1.205,1.195-2.042c0-0.838-0.424-1.49-1.262-1.954
		c-0.837-0.459-2.496-0.689-4.97-0.689c-1.594,0-2.82,0.191-3.682,0.564c-0.86,0.378-1.292,1.07-1.292,2.079
		c0,0.88,0.505,1.572,1.516,2.075C187.49,65.655,188.979,65.906,190.948,65.906z M190.571,47.277c1.133,0,2.036-0.323,2.71-0.973
		c0.669-0.65,1.005-1.522,1.005-2.616c0-1.088-0.336-1.96-1.005-2.611c-0.674-0.648-1.577-0.976-2.71-0.976
		c-1.13,0-2.035,0.327-2.704,0.976c-0.673,0.65-1.004,1.523-1.004,2.611c0,1.094,0.334,1.966,1.004,2.616
		C188.536,46.954,189.439,47.277,190.571,47.277z"/>
	<path d="M212.442,51.465c0.902,0.691,2.146,1.039,3.744,1.039c1.383,0,2.518-0.223,3.396-0.661
		c0.882-0.444,1.615-0.914,2.201-1.416l3.777,3.776c-0.961,1.047-2.182,1.909-3.646,2.579c-1.467,0.669-3.337,1.009-5.603,1.009
		c-1.887,0-3.589-0.282-5.099-0.849c-1.51-0.564-2.798-1.356-3.873-2.363c-1.064-1.008-1.882-2.203-2.452-3.586
		c-0.563-1.384-0.849-2.895-0.849-4.532c0-1.635,0.303-3.146,0.913-4.529c0.611-1.382,1.428-2.579,2.455-3.589
		c1.03-1.005,2.252-1.791,3.684-2.358c1.425-0.568,2.956-0.853,4.591-0.853c1.89,0,3.565,0.35,5.035,1.04
		c1.469,0.694,2.686,1.644,3.65,2.866c0.965,1.212,1.68,2.642,2.141,4.277c0.458,1.636,0.626,3.397,0.503,5.284h-16.427
		C210.923,49.818,211.539,50.77,212.442,51.465z M220.403,44.196c-0.208-1.093-0.711-1.993-1.512-2.705
		c-0.797-0.713-1.864-1.07-3.209-1.07c-1.296,0-2.382,0.326-3.24,0.974c-0.861,0.653-1.456,1.585-1.794,2.802H220.403
		L220.403,44.196z"/>
</g>
</svg>
